<svg id="Layer_1" data-name="Layer 1" xmlns="http://www.w3.org/2000/svg" viewBox="0 0 434.75 84.9"><defs><style>.cls-1{fill:#4767aa;}</style></defs><title>icon-facebook</title><g id="_Group_" data-name="&lt;Group&gt;"><path id="_Compound_Path_" data-name="&lt;Compound Path&gt;" class="cls-1" d="M277.63,241.77c-6.53-.7-12.19,1.28-17,7V247h0V213.55l-17.3,2.1v81.57h17.3v-4.84c2.33,1.67,4.6,3.67,7.26,4.62,10.08,3.61,23.37.67,28-12.82a45,45,0,0,0,.66-26.27C294.12,248.2,287.65,242.83,277.63,241.77Zm2.59,35.33c-.76,5.38-5,8.2-10.13,7.8a12,12,0,0,1-3.45-.76,11.78,11.78,0,0,1-5.69-8.76h0c-.28-3.83-.58-11.83,1.28-15.61,1.58-2.9,4.35-4.48,8-4.6,5.21-.17,9.15,2.41,9.93,7.7A50,50,0,0,1,280.21,277.1Z" transform="translate(-38.62 -213.55)"/><path id="_Compound_Path_2" data-name="&lt;Compound Path&gt;" class="cls-1" d="M338.95,242.77a34.6,34.6,0,0,0-18.08,0c-9,2.39-15,8.08-16.94,17.12a58,58,0,0,0-1,15.24c.64,11.57,7.8,19.82,18.9,22.38l.48.1h0l.08,0c.43.09.85.16,1.28.23l.43,0h0c.54.1,1.18.17,1.86.23a34.8,34.8,0,0,0,7.25.12h.39c11.47-.6,20.17-7.83,22.71-18.92a41.18,41.18,0,0,0,0-18.29C354.27,251.47,348.47,245.32,338.95,242.77Zm.73,33.44c-.06.36-.12.72-.2,1.07-1.15,5.1-4.86,7.87-9.8,7.64-5.32-.24-9-3.35-9.47-8.66a66.36,66.36,0,0,1-.08-11.72c.5-6.13,4.34-9.48,10.09-9.37a9.27,9.27,0,0,1,9.29,7.31C340.6,267.06,339.79,275.18,339.68,276.22Z" transform="translate(-38.62 -213.55)"/><path id="_Path_" data-name="&lt;Path&gt;" class="cls-1" d="M79.21,242.49H66.86v-8.21c.9-7.76,13.73-6.29,13.73-6.29V214.64h0c-.44-.11-25.51-6.05-30.49,13h0l0,.13c-.78,2.39-.73,13.31-.72,14.68H38.62V257.1H50v39.73H66.54V257.1H79.21l1.43-14.61Z" transform="translate(-38.62 -213.55)"/><path id="_Compound_Path_3" data-name="&lt;Compound Path&gt;" class="cls-1" d="M118.68,249.48l-.58-.62h0l-.08-.08-.41-.42h0c-3.9-4-5.37-4.95-8.42-5.85C97.46,239,86,245.2,82.41,257a46.8,46.8,0,0,0-1,22.08c2.82,15.92,14.66,21.25,27.28,18.62,3.87-.81,6.75-3.22,9.42-6.58a5.36,5.36,0,0,0,.53-.87v7h16.15V242.55H118.69v6.93ZM117.26,277c-.54,5.06-4.64,8.1-9.48,7.91s-8.24-2.85-9.31-7.61c-1.28-6.77.22-14.81.35-15.47,1.3-4.54,4.6-6.79,9.45-6.68s8.43,2.93,9,7.86A65.51,65.51,0,0,1,117.26,277Z" transform="translate(-38.62 -213.55)"/><path id="_Path_2" data-name="&lt;Path&gt;" class="cls-1" d="M184.15,293.35c-.75-2.74-1.6-5.44-2.43-8.06l-.78-2.9s-20.24,9.72-23.39-8.75a39.75,39.75,0,0,1,.22-9.2c.79-5.67,4.25-8.71,9.76-9.23a21.79,21.79,0,0,1,5.64.22c2.51.42,5,1.18,7.7,1.86,1-2.92,1.93-5.81,2.84-8.72.14-.46.26-.85.36-1.2h0l.46-1.75a2.07,2.07,0,0,0-.76-.71h0a9.07,9.07,0,0,0-2.5-1.17c-.49-.18-1-.34-1.49-.5L179,243h0A42.55,42.55,0,0,0,162.72,242c-11.69,1.23-19.62,8.13-21.82,19.52a44.33,44.33,0,0,0,.22,18.06q3,13.5,16.31,17.41a40.09,40.09,0,0,0,17.61.86,55.43,55.43,0,0,0,8.59-2.59l1-.34-.46-1.56Z" transform="translate(-38.62 -213.55)"/><path id="_Compound_Path_4" data-name="&lt;Compound Path&gt;" class="cls-1" d="M237.43,271.94a92.77,92.77,0,0,0-.56-11.32c-1.48-10.21-7.69-16.67-17.74-18.36a45.88,45.88,0,0,0-11.79-.18c-10.67,1-18.77,7.66-20.43,17.66a63.6,63.6,0,0,0-.32,18.6c1.23,9.17,5.69,15,13.41,17.81h.1c3.52,1.05,20.77,5.56,36-2.08l-.61-2.24h0c-.7-3-1.55-5.94-2.35-8.9l-.09-.29-.88.29h0c-.66.17-1.32.38-2,.59l-.36.11a65.08,65.08,0,0,1-9.07,1.89,47.51,47.51,0,0,1-8.84.05c-4.83-.8-8.52-3.38-8.35-9.5h31.83s2,0,2.12,0,0-.54,0-.6Zm-15.56-7.46h-18.7c.1-3.72.56-7.18,3.87-9.28a10.33,10.33,0,0,1,11-.31C221.69,256.9,222,260.54,221.87,264.48Z" transform="translate(-38.62 -213.55)"/><polygon id="_Path_3" data-name="&lt;Path&gt;" class="cls-1" points="434.75 29.57 416.4 29.57 400.46 54.49 400.46 2.49 400.46 2.15 400.46 0.05 383.16 2.15 383.16 83.72 400.46 83.72 400.46 58.76 416.4 83.76 434.75 83.76 417.45 56.62 434.75 29.57"/><path id="_Compound_Path_5" data-name="&lt;Compound Path&gt;" class="cls-1" d="M398,242.77a34.6,34.6,0,0,0-18.09,0c-9,2.39-15,8.08-16.94,17.12a58.05,58.05,0,0,0-1,15.24c.64,11.57,7.8,19.82,18.9,22.38l.48.1h0l.08,0c.43.09.86.16,1.29.23l.43,0h0c.54.1,1.18.17,1.86.23a34.84,34.84,0,0,0,7.25.12h.39c11.47-.6,20.17-7.83,22.72-18.92a41.25,41.25,0,0,0,0-18.29C413.28,251.46,407.49,245.31,398,242.77Zm.73,33.44c-.06.36-.12.72-.2,1.07-1.15,5.1-4.86,7.86-9.8,7.64-5.32-.25-9-3.35-9.47-8.66a66.34,66.34,0,0,1-.08-11.72c.51-6.13,4.34-9.48,10.09-9.37a9.27,9.27,0,0,1,9.29,7.31C399.6,267,398.8,275.17,398.69,276.21Z" transform="translate(-38.62 -213.55)"/></g></svg>