<svg id="Layer_1" data-name="Layer 1" xmlns="http://www.w3.org/2000/svg" viewBox="0 0 802.98 149"><defs><style>.cls-1{fill:#3cf;}</style></defs><title>icon-twitter</title><path id="path7" class="cls-1" d="M501.79,91.54l-.36,0,.62-.1c-.1,0-.16.05-.26.07Z" transform="translate(0 0)"/><path id="path9" class="cls-1" d="M87.91,120.61a14.77,14.77,0,0,1-14.74,14.68H44a42.49,42.49,0,0,1-31.12-12.87A42.19,42.19,0,0,1,0,91.39V32.56A14.09,14.09,0,0,1,4.3,22.1a14.42,14.42,0,0,1,10.51-4.23,14.06,14.06,0,0,1,10.33,4.32,14.13,14.13,0,0,1,4.31,10.36v21.3H70.93a13.25,13.25,0,0,1,9.68,4,13.48,13.48,0,0,1,0,19.21,13.2,13.2,0,0,1-9.65,4H29.46V91.38A14.49,14.49,0,0,0,44,105.93H73.17a14.77,14.77,0,0,1,14.74,14.68Z" transform="translate(0 0)"/><path id="path11" class="cls-1" d="M429.09,120.61a14.77,14.77,0,0,1-14.73,14.68H401.13a44,44,0,0,1-44-43.89V32.56a14.08,14.08,0,0,1,4.3-10.45,14.42,14.42,0,0,1,10.51-4.23,14.06,14.06,0,0,1,10.33,4.32,14.13,14.13,0,0,1,4.31,10.36v21.3h25.58a13.25,13.25,0,0,1,9.68,4,13.48,13.48,0,0,1,0,19.21,13.2,13.2,0,0,1-9.65,4H386.54V91.38a14.49,14.49,0,0,0,14.57,14.55h13.24a14.77,14.77,0,0,1,14.74,14.68Z" transform="translate(0 0)"/><path id="path13" class="cls-1" d="M352.07,120.61a14.77,14.77,0,0,1-14.73,14.68H324.11a44,44,0,0,1-44-43.89V32.56a14.09,14.09,0,0,1,4.3-10.45,14.42,14.42,0,0,1,10.51-4.23,14.06,14.06,0,0,1,10.33,4.32,14.13,14.13,0,0,1,4.31,10.36v21.3H335.1a13.25,13.25,0,0,1,9.68,4,13.48,13.48,0,0,1,0,19.21,13.2,13.2,0,0,1-9.65,4H309.53V91.38a14.49,14.49,0,0,0,14.57,14.55h13.24a14.76,14.76,0,0,1,14.73,14.68Z" transform="translate(0 0)"/><path id="path15" class="cls-1" d="M230,94.22a41.18,41.18,0,0,1-41.19,41.06,40,40,0,0,1-27.41-10.5A40.91,40.91,0,0,1,105,123.24a39.5,39.5,0,0,1-12.08-29V65.54A13.11,13.11,0,0,1,97,55.76a13.9,13.9,0,0,1,19.44,0,13.15,13.15,0,0,1,4.05,9.79V94.24a13.53,13.53,0,0,0,13.62,13.59,13,13,0,0,0,9.49-4,13.09,13.09,0,0,0,4-9.63V65.71a14,14,0,0,1,14-13.91,13.85,13.85,0,0,1,13.81,13.75V94.24a13.09,13.09,0,0,0,4,9.63,13,13,0,0,0,9.49,4,13.54,13.54,0,0,0,13.62-13.59V65.55a13.77,13.77,0,0,1,27.55,0V94.22Z" transform="translate(0 0)"/><path id="path17" class="cls-1" d="M269.74,29.34a14.72,14.72,0,0,1-29.45,0A14.75,14.75,0,0,1,255,14.66,14.18,14.18,0,0,1,265.4,19,14.09,14.09,0,0,1,269.74,29.34Z" transform="translate(0 0)"/><path id="path19" class="cls-1" d="M269.74,120.59a14.72,14.72,0,0,1-29.45,0V66.49a14.72,14.72,0,0,1,29.45,0Z" transform="translate(0 0)"/><path id="path21" class="cls-1" d="M604.23,67.46a13.07,13.07,0,0,1-4,9.61,13.21,13.21,0,0,1-9.65,4H570.44a13.44,13.44,0,0,0-13.52,13.47v27.1a13.66,13.66,0,0,1-27.31,0V94.57a40.84,40.84,0,0,1,40.85-40.72h20.1a13.71,13.71,0,0,1,13.67,13.61Z" transform="translate(0 0)"/><path id="path23" class="cls-1" d="M475.19,135.28a42.86,42.86,0,0,1-31.13-13.21c-8.61-8.81-11.92-18.41-11.92-30.82,0,0-.84-39.48,43.81-39.48,34.93,0,45.57,24.54,45.57,36.65,0,9.63-4.41,13-14.43,13H462.44s-1.62,10.22,18.72,10.22h25.48a11.79,11.79,0,0,1,0,23.59H475.19ZM462.74,82.67H492C492,73,477.47,73,477.47,73S462.74,73,462.74,82.67Z" transform="translate(0 0)"/><path id="path25" class="cls-1" d="M803,68.73c-7.6,1.3-18.63-.05-24.48-2.48,12.14-1,20.36-6.52,23.53-14-4.38,2.69-18,5.63-25.47,2.83-.37-1.76-.78-3.44-1.19-5-5.71-21-25.29-37.95-45.79-35.9q2.48-1,5-1.86c2.24-.81,15.5-3,13.41-7.64-1.76-4.12-18,3.1-21,4C731,7.23,737.7,4.63,738.41,0a32.09,32.09,0,0,0-16.88,8,11.58,11.58,0,0,0,3.24-6.42c-16.44,10.52-26,31.7-33.82,52.27-6.1-5.92-11.52-10.59-16.37-13.18-13.61-7.3-29.89-14.92-55.43-24.42-.79,8.46,4.18,19.72,18.47,27.19-3.09-.42-8.76.52-13.28,1.59,1.84,9.7,7.87,17.69,24.19,21.54-7.46.49-11.32,2.2-14.81,5.85,3.4,6.75,11.7,14.68,26.6,13-16.59,7.16-6.76,20.41,6.73,18.43-23,23.81-59.3,22-80.14,2.15,54.4,74.21,172.67,43.88,190.29-27.59,13.22.11,21-4.58,25.78-9.74Z" transform="translate(0 0)"/></svg>