<svg id="Layer_1" data-name="Layer 1" xmlns="http://www.w3.org/2000/svg" viewBox="0 0 458.63 191.38"><defs><style>.cls-1{fill:#d92632;}.cls-2{fill:#010101;}.cls-3{fill:#fff;}</style></defs><title>icon-youtube</title><path id="lozenge" class="cls-1" d="M482.58,201.6s-2.67-18.75-10.87-27c-10.39-10.84-22-10.89-27.39-11.53-38.25-2.75-95.63-2.75-95.63-2.75h-.12s-57.38,0-95.62,2.75c-5.34.63-17,.69-27.39,11.53-8.2,8.26-10.86,27-10.86,27a409.43,409.43,0,0,0-2.73,44v20.64a409.43,409.43,0,0,0,2.73,44s2.67,18.75,10.86,27c10.4,10.84,24.06,10.5,30.14,11.63,21.87,2.09,92.93,2.73,92.93,2.73s57.44-.08,95.69-2.84c5.34-.64,17-.69,27.39-11.53,8.2-8.26,10.87-27,10.87-27a409.88,409.88,0,0,0,2.73-44V245.63A409.88,409.88,0,0,0,482.58,201.6Z" transform="translate(-26.69 -160.31)"/><path id="u" class="cls-2" d="M197.86,315.19H180.47V305.12c-6.59,7.56-12.18,11.37-18.28,11.37-5.34,0-9.06-2.52-10.92-7.08-1.13-2.77-1.93-7.1-1.93-13.45V222.73h17.39v75.06c.41,2.57,1.5,3.51,3.71,3.51,3.33,0,6.34-2.89,10-8.09V222.73h17.39Z" transform="translate(-26.69 -160.31)"/><path id="o" class="cls-2" d="M136.53,252.94c0-9.88-2-17.3-5.49-22-4.63-6.32-11.9-8.91-19.22-8.91-8.29,0-14.6,2.59-19.22,8.91C89,235.64,87.12,243.14,87.12,253V285.9c0,9.82,1.7,16.61,5.26,21.24a24.23,24.23,0,0,0,19.45,9.64,24.5,24.5,0,0,0,19.59-9.64c3.51-4.63,5.13-11.41,5.13-21.24Zm-17.39,34.79c.91,9.15-1.93,13.7-7.33,13.7s-8.23-4.54-7.32-13.7V251.11c-.92-9.15,1.92-13.45,7.32-13.45s8.25,4.29,7.33,13.45Z" transform="translate(-26.69 -160.31)"/><path id="y" class="cls-2" d="M67.88,264.84v50.35H49.57V264.84s-19-61.72-22.88-73.23H45.91l12.84,48.22,12.79-48.22H90.76Z" transform="translate(-26.69 -160.31)"/><path id="e" class="cls-3" d="M462.44,272.16V253.45c0-9.78-1.93-16.93-5.39-21.55-4.64-6.26-11.24-9.57-19.55-9.57s-15.06,3.31-19.85,9.57c-3.52,4.63-5.57,12.18-5.57,22v32c0,9.72,2.26,16.52,5.78,21.1,4.79,6.25,11.39,9.37,20.06,9.37s15.46-3.27,20-9.92a23.58,23.58,0,0,0,3.88-9.93,104,104,0,0,0,.59-10.78v-2.59H445c0,6.65,0,10.6-.12,11.5-.95,4.43-3.32,6.65-7.4,6.65-5.69,0-8.09-4.25-8-12.7V272.16Zm-33-23.84c0-8.56,2.34-10.89,7.88-10.89s7.68,2.54,7.68,11v10l-15.56,0Z" transform="translate(-26.69 -160.31)"/><path id="b" class="cls-3" d="M385.61,222.18c-6.1,0-12.16,3.75-17.51,10.34l0-40H351.65V315.19h16.48l0-9.22c5.54,6.85,11.58,10.4,17.47,10.4,6.6,0,11.42-3.53,13.63-10.33,1.1-3.88,1.83-9.85,1.83-18.31V251.11c0-8.66-1.11-14.59-2.22-18.27C396.65,226,392.21,222.18,385.61,222.18Zm-1.93,66.46c0,9.15-2.16,12.66-6.94,12.66-2.73,0-5.87-1.4-8.64-4.17l0-55.52c2.77-2.74,5.9-4.17,8.63-4.17,4.78,0,6.94,2.69,6.94,11.84Z" transform="translate(-26.69 -160.31)"/><path id="u-2" data-name="u" class="cls-3" d="M337.91,315.19H320.52V305.12c-6.6,7.56-12.18,11.37-18.28,11.37-5.34,0-9.06-2.52-10.92-7.08-1.13-2.77-1.93-7.1-1.93-13.45V223.65h17.39v74.14c.41,2.57,1.5,3.51,3.71,3.51,3.33,0,6.34-2.89,10-8.09V223.65h17.39Z" transform="translate(-26.69 -160.31)"/><polygon id="T" class="cls-3" points="245.32 154.88 227.01 154.88 227.01 49.61 207.79 49.61 207.79 32.24 265.46 32.22 265.46 49.61 245.32 49.61 245.32 154.88"/></svg>